<svg width="201" height="200" viewBox="0 0 201 200" fill="none" xmlns="http://www.w3.org/2000/svg">
<g clip-path="url(#clip0_573_132)">
<path d="M44.5195 116.394C44.5919 116.391 44.6644 116.389 45.0294 116.383C52.4522 116.386 59.5824 116.378 66.7125 116.412C68.1814 116.419 69.0866 115.71 69.1379 114.345C69.1891 112.981 68.2707 112.175 66.884 112.03C66.422 111.981 65.9522 112.001 65.486 112C59.955 112 54.424 112.001 48.8931 112.002C51.4009 109.989 53.9087 107.975 56.4754 105.915C52.1325 103.373 50.894 99.0104 51.1852 93.7323C60.0267 93.7323 68.7835 93.7323 77.4893 93.7323C77.9725 88.9776 78.2172 84.3984 78.9431 79.8967C80.2716 71.6579 82.8079 63.8541 88.3899 57.3652C92.8509 52.1793 93.1472 52.289 99.5861 54.5506C103.115 55.7904 105.132 57.6032 106.307 61.3335C108.191 67.3115 111.713 72.4499 116.952 76.187C120.059 78.4039 123.533 79.69 127.329 79.9353C128.068 79.983 129.096 79.5073 129.572 78.9286C131.071 77.1058 132.896 76.1727 135.224 75.956C135.873 75.8956 136.668 75.4367 137.059 74.9105C139.259 71.954 142.078 70.2531 145.925 70.1141C145.925 77.2532 145.925 84.2958 145.925 91.9056C143.692 91.1839 141.628 90.5168 139.442 89.8101C139.676 90.1749 139.915 90.5689 140.175 90.9492C140.475 91.3889 140.807 91.8076 141.101 92.2509C146.091 99.7575 149.436 107.981 151.622 116.688C151.912 117.839 152.341 118.273 153.516 118.525C162.781 120.506 168.429 126.474 171.538 135.158C171.627 135.407 171.69 135.669 171.727 135.931C171.754 136.12 171.717 136.317 171.701 136.672C169.844 136.672 168.006 136.672 165.793 136.672C169.748 143.75 170.098 150.68 166.004 157.494C163.354 161.906 159.412 164.682 154.437 166.085C145.779 168.527 133.215 164.106 130.33 150.068C116.146 150.068 101.952 150.089 87.7594 150.035C86.3539 150.029 84.9501 149.565 83.3919 149.285C83.006 152.793 81.6669 156.465 79.0772 159.606C70.8495 169.585 55.5608 168.974 48.2347 158.088C48.7938 157.962 49.256 157.951 49.7182 157.939C51.1858 157.902 52.1668 157.253 52.1441 155.694C52.1212 154.123 51.0925 153.528 49.6383 153.533C48.3836 153.538 47.1289 153.566 45.8742 153.584C45.8742 153.584 45.9014 153.6 45.8447 153.457C43.9282 147.538 44.8407 142.08 48.0008 136.644C44.7435 136.644 41.8019 136.644 38.4764 136.644C38.9135 133.459 39.3171 130.519 39.7207 127.578C39.7207 127.578 39.6982 127.598 39.8753 127.616C45.5584 127.647 51.0646 127.638 56.5703 127.687C58.1568 127.701 59.3863 127.281 59.5789 125.537C59.7336 124.136 58.4983 123.272 56.4964 123.264C51.3883 123.243 46.2802 123.237 41.2187 123.081C42.35 120.756 43.4348 118.575 44.5195 116.394ZM122.392 92.8359C114.172 92.145 107.015 89.0432 100.965 83.0745C100.217 86.0644 99.5426 88.758 98.8355 91.583C100.203 92.0272 101.455 92.4222 102.699 92.8395C112.067 95.9822 118.883 101.851 121.51 111.586C122.729 116.106 123.236 120.862 123.628 125.547C123.97 129.635 123.699 133.775 123.699 138.039C125.828 138.621 128.185 139.333 130.581 139.86C131.042 139.961 131.822 139.464 132.181 139.022C133.761 137.067 135.285 135.064 136.738 133.013C137.43 132.036 138.255 130.97 138.442 129.849C139.699 122.303 138.819 114.837 137.098 107.47C135.924 102.444 134.445 97.4887 133.2 92.8628C129.401 92.8628 126.087 92.8628 122.392 92.8359ZM156.251 155.572C156.679 155.154 157.137 154.762 157.532 154.316C160.457 151.008 160.948 146.151 158.768 142.236C156.693 138.508 152.228 136.293 148.18 136.982C143.687 137.747 140.263 140.892 139.341 145.1C138.419 149.306 140.151 153.647 143.724 156.088C147.5 158.667 151.875 158.542 156.251 155.572ZM60.3836 157.204C60.509 157.248 60.6332 157.296 60.76 157.335C65.3034 158.727 69.7334 157.376 72.5157 153.749C75.1805 150.275 75.3419 145.309 72.91 141.62C70.4639 137.909 66.0293 136.177 61.5959 137.201C57.5321 138.139 54.1658 141.902 53.7156 146.009C53.1801 150.894 55.4287 154.809 60.3836 157.204ZM110.7 133.577C109.956 127.197 109.211 120.818 108.461 114.39C101.253 116.964 97.4938 124.697 99.3148 132.807C100.818 139.5 106.697 144.092 111.797 143.412C111.449 140.257 111.1 137.095 110.7 133.577Z" fill="#FEF3C7"/>
<path d="M29.7026 57.6093C29.7147 55.1724 29.7147 52.7204 29.7147 50.1353C43.1054 50.1353 56.3112 50.1353 69.6418 50.1353C69.6418 63.3408 69.6418 76.5493 69.6418 89.8792C56.4344 89.8792 43.2233 89.8792 29.758 89.8792C29.758 88.6894 29.758 87.5137 29.7358 86.1551C29.7136 85.9721 29.6911 86.001 29.8682 86.0037C34.1633 86.0047 38.2816 85.9796 42.3993 86.0128C43.9838 86.0256 45.3063 85.6178 45.3086 83.8199C45.311 82.0395 44.0145 81.5795 42.4186 81.5881C38.1681 81.611 33.9173 81.5808 29.6666 81.5718C29.6666 81.5718 29.6956 81.5993 29.7275 81.4251C29.7487 78.2937 29.7381 75.3365 29.7274 72.3793C29.7274 72.3793 29.704 72.4029 29.8771 72.3784C31.7698 72.3249 33.4926 72.3509 35.2078 72.2496C36.5991 72.1675 37.7013 71.53 37.6758 69.9629C37.6489 68.3026 36.5366 67.7154 35.0094 67.7064C33.2229 67.6959 31.4366 67.6697 29.7006 67.467C29.741 65.5128 29.731 63.7418 29.7211 61.9709C29.7211 61.9709 29.6965 61.9965 29.8719 62.0307C34.5614 62.0679 39.0754 62.0721 43.5895 62.0731C45.1162 62.0734 46.6436 62.093 48.1694 62.0537C49.4968 62.0194 50.3376 61.2597 50.3929 59.9753C50.4535 58.5675 49.578 57.7936 48.1779 57.6768C47.6502 57.6328 47.1164 57.663 46.5854 57.66C40.9452 57.6283 35.3051 57.5968 29.6649 57.5651C29.6649 57.5651 29.6906 57.5941 29.7026 57.6093Z" fill="#FEF3C7"/>
<path d="M90.2014 34.9292C90.3219 34.7849 90.4777 34.7905 90.7504 34.803C93.7327 34.806 96.5986 34.7737 99.4636 34.8098C100.927 34.8283 102.037 34.3671 102.1 32.7802C102.167 31.1107 101.06 30.4397 99.5202 30.4102C98.0077 30.3812 96.4942 30.4039 94.8553 30.4039C97.6271 27.2832 104.216 25.7597 109.009 28.0366C114.19 30.4978 117.479 36.2621 116.783 42.0501C113.898 40.7632 111.082 39.445 108.216 38.2462C105.471 37.0983 102.726 38.3019 101.871 40.9121C101.083 43.3164 102.16 45.558 104.75 46.7473C107.875 48.1823 111.025 49.5635 114.331 51.0422C113.869 51.9636 113.528 52.7462 113.101 53.4778C111.002 57.0691 110.454 57.2462 106.734 55.5833C100.968 53.0063 95.1887 50.4586 89.464 47.7932C88.788 47.4785 88.0798 46.5552 87.9661 45.8239C87.3698 41.9876 88.5275 38.4616 90.2014 34.9292Z" fill="#FEF3C7"/>
</g>
<defs>
<clipPath id="clip0_573_132">
<rect width="200" height="200" fill="white" transform="translate(0.5)"/>
</clipPath>
</defs>
</svg>
